#!OML:ASF F:\VICON\USERDATA\INSTALL\rory3\rory3.ASF
:FULLY-SPECIFIED
:DEGREES
271
root -6.86279 16.7183 -7.00396 200.818 -56.6519 186.333
lowerback 2.02314 -1.39976 -5.24534
upperback -7.62733 -2.80476 -2.33444
thorax -9.08937 -1.25442 0.753532
lowerneck -6.12721 -17.5754 -14.9601
upperneck 24.0275 -30.2714 17.8599
head 14.5455 -13.9404 3.67139
rclavicle 5.36719e-014 5.56597e-014
rhumerus 5.58104 81.1602 -49.6312
rradius 109.385
rwrist -9.86874
rhand 25.5027 4.59066
rfingers 7.12502
rthumb 49.6223 -16.8282
lclavicle 5.36719e-014 5.56597e-014
lhumerus -201.465 -112.995 266.418
lradius 82.9594
lwrist 77.8086
lhand 39.5644 21.1066
lfingers 7.12502
lthumb 62.0331 32.5592
rfemur 124.529 -211.611 -168.347
rtibia 51.9153
rfoot -8.26822 -5.01967
rtoes -6.25273
lfemur -48.896 -15.2357 -2.76919
ltibia 50.1406
lfoot -21.226 12.2057
ltoes -33.1627
272
root -6.87081 16.7669 -6.81554 199.777 -49.3184 188.475
lowerback 1.80065 -0.94777 -6.0176
upperback -7.51285 -2.23354 -2.26064
thorax -8.84041 -0.930856 1.20087
lowerneck -6.03451 -18.261 -15.0285
upperneck 24.1268 -31.7488 18.1345
head 14.9651 -14.6038 3.35885
rclavicle 4.73108e-014 8.74653e-014
rhumerus 23.4066 80.6853 -35.2699
rradius 111.857
rwrist -7.84634
rhand 24.3359 6.58398
rfingers 7.12502
rthumb 48.5508 -15.3677
lclavicle 4.73108e-014 8.74653e-014
lhumerus -202.269 -113.661 265.323
lradius 83.1032
lwrist 76.2277
lhand 39.5656 21.7605
lfingers 7.12502
lthumb 62.0341 33.2118
rfemur 124.559 -209.504 -165.064
rtibia 50.9259
rfoot -5.7024 -1.88354
rtoes -6.26364
lfemur -48.5836 -16.2068 -0.832667
ltibia 50.1108
lfoot -21.3676 13.216
ltoes -35.1433
273
root -6.9119 16.8154 -6.57937 199.874 -42.0621 189.46
lowerback 2.32181 -0.348769 -6.56613
upperback -8.1352 -1.66312 -2.55941
thorax -9.89537 -0.622233 1.14882
lowerneck -5.01913 -18.7698 -15.153
upperneck 24.5464 -33.1382 18.0095
head 15.2391 -15.3592 3.02885
rclavicle -2.5842e-014 -6.36111e-015
rhumerus 31.291 80.5079 -30.4914
rradius 113.994
rwrist -6.2758
rhand 23.8409 8.97366
rfingers 7.12502
rthumb 48.0949 -13.1948
lclavicle -2.5842e-014 -6.36111e-015
lhumerus -206.747 -113.756 267.368
lradius 83.2138
lwrist 74.891
lhand 39.7503 21.9469
lfingers 7.12502
lthumb 62.1879 33.2048
rfemur 124.684 -206.79 -162.099
rtibia 50.1139
rfoot -3.15989 2.04312
rtoes -9.77243
lfemur -48.3344 -17.5954 0.45159
ltibia 50.0069
lfoot -21.449 12.9209
ltoes -35.2577
274
root -6.98348 16.889 -6.37233 199.919 -35.5185 189.993
lowerback 2.53958 -0.214848 -7.40286
upperback -8.27392 -1.63766 -2.61111
thorax -10.1891 -0.557652 1.56036
lowerneck -4.67282 -19.0461 -15.2152
upperneck 24.9148 -34.0701 17.8921
head 15.5217 -15.8547 2.74455
rclavicle -7.15625e-014 3.49861e-014
rhumerus 47.4676 81.0859 -17.3711
rradius 116.835
rwrist -7.2736
rhand 22.7602 4.86134
rfingers 7.12502
rthumb 47.0972 -17.7619
lclavicle -7.15625e-014 3.49861e-014
lhumerus -210.644 -114.531 268.706
lradius 83.0689
lwrist 73.7725
lhand 39.7527 24.7652
lfingers 7.12502
lthumb 62.1899 36.0206
rfemur 124.885 -203.925 -159.788
rtibia 49.4933
rfoot 0.658017 5.19594
rtoes 12.0742
lfemur -47.6231 -20.3372 1.70683
ltibia 49.7485
lfoot -21.3205 12.7317
ltoes -36.8112
275
root -7.0709 16.9231 -6.15039 200.811 -28.5963 190.402
lowerback 2.10249 0.0376238 -8.21191
upperback -8.74525 -1.48708 -2.80615
thorax -10.493 -0.461086 1.78088
lowerneck -3.82014 -19.0996 -15.4721
upperneck 24.8582 -34.8895 18.3346
head 15.6815 -16.3689 2.76267
rclavicle 4.37326e-014 9.54166e-015
rhumerus 55.3116 80.5797 -12.7119
rradius 118.694
rwrist -7.3016
rhand 25.233 4.47972
rfingers 7.12502
rthumb 49.375 -17.0651
lclavicle 4.37326e-014 9.54166e-015
lhumerus -215.391 -115.153 270.611
lradius 82.7661
lwrist 72.7693
lhand 39.4844 25.4303
lfingers 7.12502
lthumb 61.9664 36.9659
rfemur 124.102 -199.215 -156.817
rtibia 49.1105
rfoot 6.48651 12.0812
rtoes 14.1242
lfemur -47.6902 -22.2851 2.80912
ltibia 49.6472
lfoot -21.1211 11.8537
ltoes -37.9852
276
root -7.16155 16.935 -5.92993 201.299 -21.6301 191.621
lowerback 2.06597 0.489527 -8.39022
upperback -9.46378 -1.09322 -2.89279
thorax -11.3518 -0.27552 1.74343
lowerneck -2.29269 -19.2725 -15.4011
upperneck 24.4858 -35.7791 18.4604
head 15.4136 -17.0114 2.72015
rclavicle -4.13472e-014 -1.90833e-014
rhumerus 57.489 80.4508 -13.5034
rradius 119.855
rwrist -6.35345
rhand 24.7894 4.53617
rfingers 7.12502
rthumb 48.9677 -17.2122
lclavicle -4.13472e-014 -1.90833e-014
lhumerus -221.459 -116.111 273.415
lradius 82.3437
lwrist 71.6644
lhand 39.6071 25.5141
lfingers 7.12502
lthumb 62.0687 36.9222
rfemur 123.413 -193.506 -152.044
rtibia 48.8677
rfoot 15.1842 18.0963
rtoes 19.5913
lfemur -47.3967 -23.6296 4.47065
ltibia 49.6315
lfoot -20.3022 10.783
ltoes -39.9557
277
root -7.25458 16.9426 -5.71414 201.417 -14.9287 193.53
lowerback 2.22077 0.948496 -8.06954
upperback -9.64197 -0.463733 -2.50169
thorax -11.7024 0.0266201 1.9145
lowerneck -2.89377 -19.629 -15.285
upperneck 24.7103 -36.4496 18.0331
head 15.6316 -17.2997 2.26876
rclavicle 4.37326e-015 1.27222e-014
rhumerus 60.3526 79.5747 -12.938
rradius 120.926
rwrist -5.50297
rhand 24.4015 5.21717
rfingers 7.12502
rthumb 48.6111 -16.7054
lclavicle 4.37326e-015 1.27222e-014
lhumerus -224.494 -117.538 274.135
lradius 81.4308
lwrist 70.5329
lhand 40.4182 25.1909
lfingers 7.12502
lthumb 62.7409 35.7306
rfemur 123.02 -187.528 -146.064
rtibia 48.6128
rfoot 26.0634 21.334
rtoes 24.0911
lfemur -46.7991 -24.7305 6.68571
ltibia 50.0027
lfoot -19.3367 9.03404
ltoes -40.1276
